<?xml version="1.0" encoding="utf-8"?>
<!-- Generator: Adobe Illustrator 27.0.0, SVG Export Plug-In . SVG Version: 6.00 Build 0)  -->
<svg version="1.1" id="Layer_1" xmlns="http://www.w3.org/2000/svg" xmlns:xlink="http://www.w3.org/1999/xlink" x="0px" y="0px"
	 viewBox="0 0 273.1 273.1" style="enable-background:new 0 0 273.1 273.1;" xml:space="preserve">
<style type="text/css">
	.st0{fill:none;}
	.st1{fill:none;stroke:#606060;stroke-width:10;stroke-miterlimit:10;}
	.st2{fill:#606060;}
</style>
<g>
	<path class="st0" d="M128.8,273.1c-42.9,0-85.9,0-128.8,0c0-91,0-182,0-273.1c91,0,182,0,273.1,0c0,42.9,0,85.8,0,128.8
		c-0.2-1.9-0.4-3.8-0.7-5.7c-3.2-28.8-13.9-54.4-33.2-76c-31-34.5-69.9-49.9-116.1-45.8C94.4,3.8,68.9,14.9,47.4,34.1
		c-34.6,31-50,70-46.1,116.3c1.9,22.3,9.4,42.9,21.9,61.4c21.8,32.2,51.8,52,90.1,59.1C118.4,271.9,123.6,272.4,128.8,273.1z"/>
	<path class="st0" d="M128.8,273.1c-5.2-0.7-10.4-1.2-15.5-2.1C75,263.9,45,244,23.2,211.8c-12.6-18.5-20-39.2-21.9-61.4
		c-3.9-46.3,11.5-85.3,46.1-116.3c21.5-19.3,47-30.4,75.8-32.9c46.1-4,85.1,11.3,116.1,45.8c19.4,21.6,30,47.2,33.2,76
		c0.2,1.9,0.4,3.8,0.7,5.7c0,5.3,0,10.6,0,16c-0.2,0.8-0.4,1.5-0.5,2.3c-1.3,19-6.4,37-15.6,53.7c-21.3,38.4-53.5,62-96.8,70.2
		c-5.1,1-10.3,1.4-15.5,2.1C139.5,273.1,134.1,273.1,128.8,273.1z M259.3,136.8C259.3,69.4,204.5,14.5,137,14.3
		C69.5,14.1,14.4,69.1,14.3,136.7C14.2,204.1,69,259.1,136.6,259.3C204.1,259.5,259.2,204.4,259.3,136.8z"/>
	<path class="st0" d="M144.8,273.1c5.2-0.7,10.4-1.2,15.5-2.1c43.2-8.2,75.5-31.8,96.8-70.2c9.2-16.6,14.2-34.7,15.6-53.7
		c0.1-0.8,0.3-1.5,0.5-2.3c0,42.8,0,85.5,0,128.3C230.3,273.1,187.5,273.1,144.8,273.1z"/>
	<path class="st1" d="M259.3,136.8c-0.1,67.6-55.2,122.6-122.7,122.4C69,259.1,14.2,204.1,14.3,136.7C14.4,69.1,69.5,14.1,137,14.3
		C204.5,14.5,259.3,69.4,259.3,136.8z M127.5,136.4c-1.1,0.8-1.9,1.3-2.6,2c-12,11.9-23.9,23.7-35.9,35.6c-0.8,0.7-1.5,1.5-2.2,2.3
		c-3.2,4.1-1.1,9.7,3.9,10.7c2.9,0.6,5.1-0.7,7.1-2.7c12.3-12.3,24.6-24.6,36.9-36.9c0.7-0.7,1.4-1.3,2.5-2.4c0.7,1,1.2,1.9,1.9,2.6
		c12,12.1,24.1,24.1,36.1,36.1c0.8,0.8,1.5,1.5,2.4,2.1c4.4,3.1,10.2,0.4,10.6-4.9c0.2-2.6-1-4.5-2.8-6.3
		c-12.2-12.1-24.4-24.2-36.7-36.3c-0.7-0.7-1.8-1.1-3.2-2c1.7-1.3,2.5-1.9,3.2-2.6c12.1-12,24.1-24.1,36.1-36.1
		c0.8-0.8,1.5-1.5,2.2-2.3c3-4.1,0.8-9.5-4.1-10.5c-2.9-0.6-5.1,0.7-7.1,2.7c-12.3,12.3-24.6,24.6-36.9,36.9c-0.7,0.7-1.4,1.3-2.1,2
		c-0.7-0.7-1.2-1.1-1.7-1.6c-12.5-12.5-25.1-25.1-37.6-37.6c-3.1-3.1-7.5-3.3-10.2-0.6c-2.7,2.7-2.4,7.1,0.6,10.2
		c2.5,2.6,5.1,5.2,7.7,7.7C106,115,116.5,125.4,127.5,136.4z"/>
	<path class="st2" d="M127.5,136.4c-11-11-21.5-21.4-31.9-31.9c-2.6-2.6-5.2-5.1-7.7-7.7c-3.1-3.1-3.3-7.5-0.6-10.2
		c2.7-2.7,7.1-2.5,10.2,0.6c12.6,12.5,25.1,25.1,37.6,37.6c0.5,0.5,1,1,1.7,1.6c0.7-0.7,1.4-1.3,2.1-2
		c12.3-12.3,24.6-24.6,36.9-36.9c2-2,4.2-3.2,7.1-2.7c4.9,1,7,6.4,4.1,10.5c-0.6,0.9-1.4,1.6-2.2,2.3c-12,12-24.1,24.1-36.1,36.1
		c-0.7,0.7-1.5,1.2-3.2,2.6c1.4,0.9,2.5,1.3,3.2,2c12.2,12.1,24.4,24.2,36.7,36.3c1.8,1.8,3,3.7,2.8,6.3c-0.4,5.4-6.2,8-10.6,4.9
		c-0.9-0.6-1.6-1.4-2.4-2.1c-12-12-24.1-24.1-36.1-36.1c-0.7-0.7-1.2-1.6-1.9-2.6c-1.1,1.1-1.8,1.7-2.5,2.4
		c-12.3,12.3-24.6,24.6-36.9,36.9c-2,2-4.2,3.3-7.1,2.7c-5-1-7.1-6.7-3.9-10.7c0.7-0.8,1.4-1.6,2.2-2.3c12-11.9,23.9-23.8,35.9-35.6
		C125.6,137.7,126.4,137.2,127.5,136.4z"/>
</g>
</svg>
