<?xml version="1.0" encoding="utf-8"?>
<!-- Generator: Adobe Illustrator 27.0.0, SVG Export Plug-In . SVG Version: 6.00 Build 0)  -->
<svg version="1.1" id="Layer_1" xmlns="http://www.w3.org/2000/svg" xmlns:xlink="http://www.w3.org/1999/xlink" x="0px" y="0px"
	 viewBox="0 0 543 543" style="enable-background:new 0 0 543 543;" xml:space="preserve">
<style type="text/css">
	.st0{fill:none;}
	.st1{fill:#E2D4C7;}
</style>
<g>
	<path class="st0" d="M267.1,543c-89-91.9-178-183.9-267.1-275.9c91.9-89,183.9-178,275.9-267.1c89,91.9,178,183.9,267.1,275.9
		C451.1,364.9,359.1,453.9,267.1,543z M160.8,157.2c-2.9,2.8-2.7,5.4,0.1,8.8c8.9,11.1,18.3,21.8,26.2,33.6
		c13.1,19.7,20.6,41.6,20.6,65.5c0,32.8-12.5,61.1-32.1,86.5c-8.1,10.6-17.6,20.1-26.6,30c-3.2,3.5-3.1,7.2,0.6,9.8
		c3.2,2.2,5.7,0.9,8.3-1.5c17.8-17.2,37.2-32.2,59.9-42.4c35-15.7,70.1-16.4,105,0.2c19.2,9.1,35.3,22.4,50.3,37.4
		c3.4,3.4,6.1,3.6,9.1,0.8c3.1-2.9,2.8-5.6-0.4-9.4c-7.4-8.8-15-17.4-21.7-26.8c-12.6-17.7-21.3-37.3-23.9-59.1
		c-3.5-28.5,3.9-54.7,17.8-79.4c10.6-18.7,24.4-35,39.8-49.9c3.5-3.4,3.3-7.1-0.3-9.8c-2.7-2-5.1-1.7-8.3,1.3
		c-16.2,15.6-33.6,29.5-53.8,39.6c-42.1,21-83.6,20.4-124.2-4.4c-13.8-8.5-26-18.9-37.4-30.4C166.5,154.5,163.7,154.3,160.8,157.2z"
		/>
	<path class="st1" d="M160.8,157.2c2.9-2.9,5.8-2.7,9.1,0.6c11.4,11.4,23.6,21.9,37.4,30.4c40.6,24.8,82,25.4,124.2,4.4
		c20.2-10.1,37.6-24,53.8-39.6c3.1-3,5.6-3.4,8.3-1.3c3.7,2.8,3.8,6.4,0.3,9.8c-15.4,15-29.2,31.2-39.8,49.9
		c-13.9,24.6-21.3,50.8-17.8,79.4c2.6,21.8,11.3,41.4,23.9,59.1c6.6,9.3,14.3,17.9,21.7,26.8c3.2,3.8,3.4,6.5,0.4,9.4
		c-3,2.8-5.7,2.6-9.1-0.8c-14.9-14.9-31.1-28.2-50.3-37.4c-34.9-16.7-70-16-105-0.2c-22.7,10.2-42.1,25.3-59.9,42.4
		c-2.5,2.4-5,3.8-8.3,1.5c-3.8-2.6-3.9-6.3-0.6-9.8c9-9.9,18.4-19.4,26.6-30c19.6-25.4,32.1-53.7,32.1-86.5c0-24-7.5-45.8-20.6-65.5
		c-7.8-11.8-17.3-22.5-26.2-33.6C158.1,162.5,157.9,160,160.8,157.2z M349.2,196.2c-49.6,28.9-99.3,31.9-150.1,0.3
		c29,52.1,25.4,101.7-5.4,150.3c49.7-29,99.4-31.9,150.2-0.4C314.9,294.4,318.5,244.9,349.2,196.2z"/>
	<path class="st1" d="M349.2,196.2c-30.7,48.6-34.3,98.2-5.3,150.2c-50.8-31.5-100.4-28.6-150.2,0.4c30.8-48.6,34.5-98.2,5.4-150.3
		C250,228.1,299.6,225.1,349.2,196.2z"/>
</g>
<image style="overflow:visible;enable-background:new    ;" width="1920" height="1080" xlink:href="C:\Users\USER\OneDrive\Pictures\Screenshots\Screenshot (78).png"  transform="matrix(0.1478 0 0 0.156 -621.8948 5.7358)">
</image>
<rect x="-678.8" y="275.4" class="st1" width="492.5" height="127.6"/>
</svg>
