<?xml version="1.0" encoding="utf-8"?>
<!-- Generator: Adobe Illustrator 27.0.0, SVG Export Plug-In . SVG Version: 6.00 Build 0)  -->
<svg version="1.1" id="Layer_1" xmlns="http://www.w3.org/2000/svg" xmlns:xlink="http://www.w3.org/1999/xlink" x="0px" y="0px"
	 viewBox="0 0 543 543" style="enable-background:new 0 0 543 543;" xml:space="preserve">
<style type="text/css">
	.st0{fill:none;}
	.st1{fill:#E2D4C7;}
</style>
<g>
	<path class="st0" d="M359,528.5C244.2,472,129.3,415.5,14.4,359C71,244.2,127.5,129.3,184,14.4c114.8,56.5,229.6,113,344.5,169.5
		C472,298.8,415.5,413.7,359,528.5z M128.7,201.3c-1.8,3.6-0.7,5.9,3.1,8.3c12.1,7.5,24.6,14.4,36,22.8c19,14.1,33.4,32.2,41.5,54.7
		c11.1,30.8,8.9,61.7-1,92.3c-4.1,12.7-9.8,24.8-14.9,37.2c-1.8,4.4-0.5,7.8,3.9,9c3.8,1,5.7-1.1,7.3-4.2
		c11-22.2,24.1-42.9,42.1-60.2c27.7-26.6,60.5-39.1,98.9-35.2c21.1,2.1,40.8,9.2,59.9,18.2c4.3,2,7,1.3,8.8-2.3
		c1.9-3.8,0.8-6.2-3.5-8.7c-9.9-5.8-20-11.3-29.4-17.9c-17.8-12.4-32.6-27.9-42.5-47.6c-12.9-25.7-14.8-52.8-10-80.7
		c3.7-21.2,11.2-41.2,20.6-60.4c2.2-4.4,0.8-7.8-3.6-9.1c-3.2-1-5.4,0.2-7.3,4c-10,20.1-21.7,39.1-37.3,55.4
		c-32.6,34-71.8,47.4-118.4,37.8c-15.9-3.3-30.9-9.1-45.5-16C133.2,196.7,130.5,197.6,128.7,201.3z"/>
	<path class="st1" d="M128.7,201.3c1.8-3.7,4.5-4.5,8.7-2.5c14.6,6.9,29.6,12.7,45.5,16c46.6,9.7,85.8-3.8,118.4-37.8
		c15.6-16.3,27.3-35.3,37.3-55.4c1.9-3.9,4.1-5,7.3-4c4.4,1.4,5.8,4.7,3.6,9.1c-9.4,19.3-17,39.2-20.6,60.4
		c-4.8,27.9-2.9,55,10,80.7c9.9,19.7,24.6,35.1,42.5,47.6c9.4,6.6,19.5,12.1,29.4,17.9c4.3,2.5,5.4,4.9,3.5,8.7
		c-1.8,3.6-4.5,4.3-8.8,2.3c-19.1-9-38.8-16.1-59.9-18.2c-38.5-3.9-71.3,8.6-98.9,35.2c-18,17.3-31.1,38-42.1,60.2
		c-1.5,3.1-3.5,5.3-7.3,4.2c-4.4-1.2-5.7-4.6-3.9-9c5.1-12.3,10.8-24.5,14.9-37.2c9.9-30.5,12.1-61.4,1-92.3
		c-8.1-22.5-22.6-40.6-41.5-54.7c-11.4-8.5-23.9-15.4-36-22.8C128,207.2,126.9,204.9,128.7,201.3z M319.3,174.4
		c-37,43.9-82.7,63.5-141.1,50.9c44.9,39.2,58.2,87.1,45.6,143.3c37-44.1,82.8-63.6,141.2-51C320.1,278.4,306.8,230.6,319.3,174.4z"
		/>
	<path class="st1" d="M319.3,174.4c-12.5,56.2,0.8,104,45.7,143.2c-58.4-12.6-104.2,7-141.2,51c12.6-56.2-0.7-104.1-45.6-143.3
		C236.6,237.9,282.3,218.4,319.3,174.4z"/>
</g>
<image style="overflow:visible;" width="1920" height="1080" xlink:href="C:\Users\USER\OneDrive\Pictures\Screenshots\Screenshot (78).png"  transform="matrix(0.1478 0 0 0.156 -621.8948 5.7358)">
</image>
<rect x="-678.8" y="275.4" class="st1" width="492.5" height="127.6"/>
</svg>
